<svg xmlns="http://www.w3.org/2000/svg" width="1200" height="900" viewBox="0 0 1200 900">
  <defs>
    <linearGradient id="bg4" x1="0" y1="0" x2="0" y2="900" gradientUnits="userSpaceOnUse">
      <stop offset="0" stop-color="#131114"/>
      <stop offset="1" stop-color="#0B0A0D"/>
    </linearGradient>
  </defs>
  <rect width="1200" height="900" fill="url(#bg4)"/>
  <rect x="0.5" y="0.5" width="1199" height="899" stroke="rgba(255,255,255,0.08)"/>
  <rect x="60" y="60" width="1080" height="60" rx="14" fill="#1A161C" stroke="rgba(224,35,78,0.25)"/>
  <circle cx="90" cy="90" r="7" fill="#E0234E"/>
  <rect x="115" y="84" width="150" height="12" rx="6" fill="rgba(245,245,242,0.6)"/>
  <rect x="960" y="78" width="130" height="24" rx="12" fill="#E0234E"/>
  <text x="1025" y="94" fill="#FFFFFF" font-family="Inter Tight, Arial" font-size="12" font-weight="800" text-anchor="middle">AI BACKEND</text>
  <g>
    <rect x="60" y="160" width="500" height="240" rx="18" fill="#1A161C" stroke="rgba(255,255,255,0.1)"/>
    <rect x="84" y="184" width="432" height="14" rx="7" fill="rgba(255,255,255,0.14)"/>
    <rect x="84" y="210" width="360" height="12" rx="6" fill="rgba(255,255,255,0.1)"/>
    <rect x="84" y="244" width="200" height="60" rx="12" fill="rgba(224,35,78,0.16)" stroke="rgba(224,35,78,0.4)"/>
    <rect x="296" y="244" width="200" height="60" rx="12" fill="rgba(255,255,255,0.06)" stroke="rgba(255,255,255,0.12)"/>
    <rect x="84" y="316" width="412" height="48" rx="12" fill="rgba(255,255,255,0.05)"/>
  </g>
  <g>
    <rect x="580" y="160" width="540" height="240" rx="18" fill="#1A161C" stroke="rgba(255,255,255,0.1)"/>
    <circle cx="620" cy="200" r="10" fill="#E0234E"/>
    <rect x="650" y="194" width="160" height="12" rx="6" fill="rgba(255,255,255,0.16)"/>
    <rect x="620" y="230" width="460" height="12" rx="6" fill="rgba(255,255,255,0.08)"/>
    <rect x="620" y="256" width="420" height="12" rx="6" fill="rgba(255,255,255,0.08)"/>
    <rect x="620" y="282" width="380" height="12" rx="6" fill="rgba(255,255,255,0.08)"/>
    <rect x="620" y="320" width="220" height="56" rx="12" fill="rgba(224,35,78,0.18)" stroke="rgba(224,35,78,0.5)"/>
    <rect x="860" y="320" width="220" height="56" rx="12" fill="rgba(255,255,255,0.06)" stroke="rgba(255,255,255,0.12)"/>
  </g>
  <text x="60" y="460" fill="#F5F5F2" font-family="Inter Tight, Arial Black, Arial" font-size="64" font-weight="800" letter-spacing="-2px">NESTJS AI &amp; PYTHON API</text>
  <text x="60" y="520" fill="#E0234E" font-family="JetBrains Mono, monospace" font-size="20" font-weight="600">NestJS • TypeScript • Python • AI</text>
  <text x="60" y="580" fill="rgba(245,245,242,0.7)" font-family="Inter, Arial" font-size="22" line-height="34">AI-powered API with Python backend integration, DTO validation</text>
  <text x="60" y="620" fill="rgba(245,245,242,0.7)" font-family="Inter, Arial" font-size="22" line-height="34">and scalable modular architecture.</text>
  <rect x="60" y="680" width="200" height="56" rx="14" fill="rgba(224,35,78,0.18)" stroke="rgba(224,35,78,0.6)"/>
  <text x="160" y="714" fill="#E0234E" font-family="Inter Tight, Arial" font-size="18" font-weight="800" text-anchor="middle">AI ENDPOINTS</text>
  <rect x="280" y="680" width="220" height="56" rx="14" fill="rgba(255,255,255,0.06)" stroke="rgba(255,255,255,0.15)"/>
  <text x="390" y="714" fill="#F5F5F2" font-family="Inter Tight, Arial" font-size="18" font-weight="800" text-anchor="middle">PYTHON INTEGRATION</text>
</svg>